<svg id="Component_203_2" data-name="Component 203 – 2" xmlns="http://www.w3.org/2000/svg" width="24" height="24" viewBox="0 0 24 24">
  <g id="Rectangle_11664" data-name="Rectangle 11664" fill="#fff" stroke="#707070" stroke-width="1" opacity="0">
    <rect width="24" height="24" stroke="none"/>
    <rect x="0.5" y="0.5" width="23" height="23" fill="none"/>
  </g>
  <path id="Union_119" data-name="Union 119" d="M16.926,18.941H12.361l-.03,0a.389.389,0,0,1-.064,0H7.7l-.03,0a.389.389,0,0,1-.064,0H.463a.463.463,0,0,1,0-.926H.495c.248,0,.5,0,.743,0h1.3c0-.219,0-.438,0-.657V9.426a.463.463,0,0,1,.926,0v.016c.009.368,0,.736,0,1.1v7.469H7.2c0-.218,0-.437,0-.655V9.428a.463.463,0,0,1,.926,0v.016c.009.368,0,.736,0,1.1v7.467h3.732c0-.218,0-.437,0-.655V9.428a.463.463,0,0,1,.926,0v.016c.009.368,0,.736,0,1.1v7.467h3.73c0-.218,0-.437,0-.655V9.428a.463.463,0,1,1,.926,0v.016c.009.368,0,.736,0,1.1v7.467h2.083a.463.463,0,0,1,0,.926H19.5c-.248,0-.5,0-.743,0H17.02l-.03,0h-.018ZM19.008,7.568c-.223,0-.446,0-.669,0H.935A.47.47,0,0,1,.472,7.1V5.146a.459.459,0,0,1,.229-.4c.021-.009.039-.021.06-.03.433-.227.868-.451,1.3-.678L4.426,2.806q1.309-.681,2.616-1.363L9.062.389,9.6.111c.035-.019.067-.037.1-.053a.524.524,0,0,1,.493.007c.382.187.755.387,1.132.581l2.292,1.176q1.312.677,2.627,1.349l2.169,1.113.907.465a.462.462,0,0,1,.229.4V7.109a.472.472,0,0,1-.463.463h-.018A.39.39,0,0,1,19.008,7.568ZM1.673,6.65H18.622V5.443c-.3-.148-.6-.314-.893-.466L15.439,3.8,12.8,2.449,10.613,1.327,9.947.985c-.291.155-.59.3-.881.452q-1.132.59-2.259,1.178-1.3.677-2.592,1.352-1.073.559-2.15,1.12L1.4,5.436V6.649Zm17.178-1.1ZM8.705,5.027a1.533,1.533,0,0,1,.15-1.761A1.516,1.516,0,0,1,10.5,2.815a1.546,1.546,0,0,1,1.023,1.364.407.407,0,0,1,0,.071,1.532,1.532,0,0,1-1.206,1.484,1.666,1.666,0,0,1-.293.026A1.527,1.527,0,0,1,8.705,5.027Zm1.231-.185c.024.005.031,0,.026,0a.035.035,0,0,0-.017-.005l.048,0a.4.4,0,0,0,.057,0h.031l.02,0c.044-.009.09-.032.134-.037l.008,0a.506.506,0,0,0,.061-.032.379.379,0,0,1,.051-.032l.022-.013c.025-.024.052-.054.057-.059s.035-.037.051-.056l.008-.008c.022-.036.052-.092.055-.1l0-.005.009-.025c0-.012.007-.021.009-.03a.974.974,0,0,0,.028-.11c0-.026,0-.053,0-.077a.5.5,0,0,0,0-.06c0-.009,0-.016,0-.022l0-.011c0-.008-.018-.078-.03-.118l-.016-.032c-.009-.019-.021-.035-.03-.053,0,0-.018-.032-.031-.054l-.01-.011c-.038-.038-.074-.076-.114-.112l-.006,0c-.016-.009-.035-.023-.051-.032l-.059-.031h0s-.013-.009-.032-.015-.019-.008-.006,0c-.041-.012-.1-.026-.11-.027l-.025-.006h-.056l-.079,0h0c-.02,0-.039.006-.036.007a.57.57,0,0,0-.073.016L9.774,3.7c-.043.022-.083.046-.125.07h0L9.6,3.81c-.027.024-.049.051-.074.077h0a.471.471,0,0,1-.039.063l-.031.059s0,0,0,0-.007.011-.013.027c-.016.033-.01.023,0,.006-.011.038-.024.094-.025.1l-.006.026v.152s0,.009,0,.012c0,.022.008.044.014.066s.014.049.021.074c.011.044.005.022,0,0s-.01-.028-.012-.025.058.111.063.12L9.52,4.6l0,0a1.132,1.132,0,0,0,.1.106l.016.014.01.007c.009,0,.016.012.025.016.03.018.062.035.093.051h0a.453.453,0,0,1,.074.023c.021.007.043.011.064.015h0Zm.259-.025.029-.012Zm.139-.067c.006,0,.023-.013.042-.031A.266.266,0,0,0,10.335,4.75Zm-.662,0-.015-.012Zm-.134-.123s-.007-.012-.017-.023A.1.1,0,0,0,9.539,4.627Zm.931,0s.012-.012.023-.03C10.482,4.609,10.467,4.626,10.469,4.627Zm-.964-.042L9.5,4.58Zm-.1-.37s0-.015,0-.031V4.173A.12.12,0,0,0,9.407,4.215ZM10.6,4.187l0,.016,0-.016Zm-.032-.139h0Zm-.006-.012c-.005-.016-.01-.027-.013-.027Zm-.094-.159.013.016c-.006-.009-.011-.016-.013-.016Zm-.711-.169L9.772,3.7C9.763,3.7,9.756,3.707,9.756,3.708Zm.055-.027h0Zm.288-.017ZM9.945,4.833a.144.144,0,0,0-.033,0A.1.1,0,0,1,9.945,4.833Zm-.5-.8v0l.011-.022a.322.322,0,0,1-.014.03ZM10.22,3.7l-.01-.005.006,0,.007,0,.022.011ZM9.9,3.669l.038-.007h0a.207.207,0,0,1-.037.007Z" transform="translate(2 3)"/>
</svg>
