<svg id="Component_202_3" data-name="Component 202 – 3" xmlns="http://www.w3.org/2000/svg" width="24" height="24" viewBox="0 0 24 24">
  <g id="Rectangle_11663" data-name="Rectangle 11663" fill="#fff" stroke="#707070" stroke-width="1" opacity="0">
    <rect width="24" height="24" stroke="none"/>
    <rect x="0.5" y="0.5" width="23" height="23" fill="none"/>
  </g>
  <path id="Subtraction_44" data-name="Subtraction 44" d="M17869.148-12995a9.89,9.89,0,0,1-4.648-1.167,9.86,9.86,0,0,1-4.451-4.917,9.872,9.872,0,0,1-.322-6.633,9.863,9.863,0,0,1,3.953-5.326,9.8,9.8,0,0,1,5.469-1.66c.3,0,.619.017.969.05a9.889,9.889,0,0,1,6,2.836,9.688,9.688,0,0,1,2.135,3.2,9.711,9.711,0,0,1,.746,3.77,9.892,9.892,0,0,1-2.234,6.25,9.91,9.91,0,0,1-5.7,3.41A10.187,10.187,0,0,1,17869.148-12995Zm.139-18.806a8.75,8.75,0,0,0-2.408.337,8.89,8.89,0,0,0-3.963,2.387,8.873,8.873,0,0,0-2.387,3.963,8.79,8.79,0,0,0-.055,4.626,8.785,8.785,0,0,0,2.3,4.021,8.811,8.811,0,0,0,4.016,2.3,8.834,8.834,0,0,0,2.217.283,8.771,8.771,0,0,0,2.414-.337,8.757,8.757,0,0,0,3.957-2.387,8.767,8.767,0,0,0,2.387-3.958,8.808,8.808,0,0,0,.055-4.631,8.835,8.835,0,0,0-2.3-4.016,8.856,8.856,0,0,0-4.021-2.3A8.834,8.834,0,0,0,17869.287-13013.8Zm-.139,14.188a.51.51,0,0,1-.256-.067.519.519,0,0,1-.26-.448v-6.049a.507.507,0,0,1,.26-.444.513.513,0,0,1,.256-.072.539.539,0,0,1,.26.072.505.505,0,0,1,.256.444v6.049a.511.511,0,0,1-.256.448A.531.531,0,0,1,17869.148-12999.615Zm0-9.158a.734.734,0,0,1-.52-.22.731.731,0,0,1-.217-.521.731.731,0,0,1,.217-.521.732.732,0,0,1,.52-.216h.01a.727.727,0,0,1,.516.216.727.727,0,0,1,.215.521.719.719,0,0,1-.219.521A.746.746,0,0,1,17869.148-13008.773Z" transform="translate(-17857.305 13016.703)"/>
</svg>
