<svg id="Copy" xmlns="http://www.w3.org/2000/svg" width="16" height="16.004" viewBox="0 0 16 16.004">
  <path id="Union_116" data-name="Union 116" d="M17858-12999a2,2,0,0,1-2-2v-7a2,2,0,0,1,2-2h7a2,2,0,0,1,2,2v3h3a1,1,0,0,0,1-1v-7a1,1,0,0,0-1-1h-7a1,1,0,0,0-1,1v3h-1v-3a2,2,0,0,1,2-2h7a2,2,0,0,1,2,2v7a2,2,0,0,1-2,2h-3v3a2,2,0,0,1-2,2Zm-1-9v7a1,1,0,0,0,1,1h7a1,1,0,0,0,1-1v-7a1,1,0,0,0-1-1h-7A1,1,0,0,0,17857-13008Z" transform="translate(-17856 13015.001)" fill="#121212"/>
  <path id="Rectangle_11656" data-name="Rectangle 11656" d="M2,1A1,1,0,0,0,1,2V9a1,1,0,0,0,1,1H9a1,1,0,0,0,1-1V2A1,1,0,0,0,9,1H2M2,0H9a2,2,0,0,1,2,2V9a2,2,0,0,1-2,2H2A2,2,0,0,1,0,9V2A2,2,0,0,1,2,0Z" transform="translate(0 5.001)" fill="#121212"/>
</svg>
