<svg id="Component_231_1" data-name="Component 231 – 1" xmlns="http://www.w3.org/2000/svg" width="24" height="24" viewBox="0 0 24 24">
  <g id="Rectangle_11743" data-name="Rectangle 11743" fill="#fff" stroke="#707070" stroke-width="1" opacity="0">
    <rect width="24" height="24" stroke="none"/>
    <rect x="0.5" y="0.5" width="23" height="23" fill="none"/>
  </g>
  <path id="Subtraction_50" data-name="Subtraction 50" d="M16.023,20h0L1.431,19.984V15.446H.2V8.654H17.254v6.791H16.023V20ZM2.3,15.445v3.668l12.847.012v-3.68ZM10.888,12.8l.012.111v.006a3.378,3.378,0,0,0,.086.5,1.4,1.4,0,0,0,1.067.918,3.56,3.56,0,0,0,.786.094,2.6,2.6,0,0,0,.621-.072,1.421,1.421,0,0,0,1.085-.93,1.453,1.453,0,0,0-.2-1.248l0-.005a2.039,2.039,0,0,0-.994-.508l-.035-.011-.073-.022c-.122-.039-.249-.068-.371-.1l-.024-.006-.008,0a2.6,2.6,0,0,1-.659-.213.3.3,0,0,1-.162-.264.331.331,0,0,1,.139-.305.942.942,0,0,1,.488-.118,1.926,1.926,0,0,1,.369.04.536.536,0,0,1,.411.513l0,.1h1.047l0-.1a1.475,1.475,0,0,0-.4-.985,1.922,1.922,0,0,0-1.378-.509h-.03a2.643,2.643,0,0,0-.462.042,1.39,1.39,0,0,0-1.148.953,1.369,1.369,0,0,0,.2,1.189,2.28,2.28,0,0,0,1.251.6l.075.019c.084.024.169.041.264.059h.005a1.252,1.252,0,0,1,.611.237.4.4,0,0,1,.076.328.39.39,0,0,1-.188.279,1.1,1.1,0,0,1-.531.124,1.625,1.625,0,0,1-.372-.045.6.6,0,0,1-.48-.559l0-.1ZM7.324,9.818v4.459h3.2V13.3H8.416V9.818Zm-2.473,3.1v0l.756,1.359H6.932L5.484,11.965,6.843,9.818H5.57l-.716,1.274L4.143,9.818H2.85L4.214,12,2.773,14.277H4.051l.8-1.359ZM2.3,7.605H1.432V5.171L5.747.2H16.024V7.6H15.15V1.073H6.382v4.7H2.3V7.6Z" transform="translate(2.8 1.8)"/>
</svg>
