<svg id="Delete" xmlns="http://www.w3.org/2000/svg" width="24" height="24" viewBox="0 0 24 24">
  <rect id="Rectangle_11392" data-name="Rectangle 11392" width="24" height="24" fill="#121212" opacity="0"/>
  <path id="Union_95" data-name="Union 95" d="M4847.609,19155.6a3.111,3.111,0,0,1-3.139-2.99l-.341-10.172a.579.579,0,0,1,.159-.424.609.609,0,0,1,.418-.182h.02a.59.59,0,0,1,.6.566l.341,10.174a1.941,1.941,0,0,0,1.961,1.855h6.476a1.944,1.944,0,0,0,1.961-1.861l.341-10.168a.587.587,0,0,1,.6-.566h.015a.6.6,0,0,1,.423.188.589.589,0,0,1,.159.418l-.341,10.168a3.111,3.111,0,0,1-3.139,2.994Zm4.707-4.648v-7.152a.6.6,0,0,1,1.192,0v7.152a.6.6,0,0,1-1.192,0Zm-4.1,0v-7.152a.6.6,0,0,1,1.192,0v7.152a.6.6,0,0,1-1.192,0Zm-4.62-11.3a.589.589,0,1,1,0-1.178h2.649a1.332,1.332,0,0,0,1.336-1.187,2.265,2.265,0,0,1,2.183-2.033V19135l.2,0,0,.254h1.894a2.278,2.278,0,0,1,2.284,2.033,1.33,1.33,0,0,0,1.341,1.193h2.639a.59.59,0,0,1,.6.586v.033a.593.593,0,0,1-.6.559Zm5.173-2.25a2.552,2.552,0,0,1-.2.721l-.159.352h4.9l-.159-.352a2.51,2.51,0,0,1-.2-.717,1.1,1.1,0,0,0-1.1-.984h-1.986A1.1,1.1,0,0,0,4848.768,19137.406Z" transform="translate(-4839.1 -19133.002)" fill="#121212"/>
</svg>
