<svg id="Component_157_1" data-name="Component 157 – 1" xmlns="http://www.w3.org/2000/svg" width="24" height="24" viewBox="0 0 24 24">
  <g id="Rectangle_11580" data-name="Rectangle 11580" fill="#fff" stroke="#707070" stroke-width="1" opacity="0">
    <rect width="24" height="24" stroke="none"/>
    <rect x="0.5" y="0.5" width="23" height="23" fill="none"/>
  </g>
  <path id="Union_102" data-name="Union 102" d="M8664.487,19827.68a.478.478,0,0,1-.344-.141.487.487,0,0,1-.145-.348v-12.445a.663.663,0,0,1,.01-.1c0-.01,0-.023.011-.029l0-.025a.111.111,0,0,0,.01-.033l.029-.07,0,.01c.006-.01.006-.02.011-.025l.02-.02a.268.268,0,0,1,.045-.055l5.26-5.23h-.04l.145-.088a.261.261,0,0,1,.055-.031l0,0s.01-.006.015-.006l.011,0a.334.334,0,0,1,.06-.021l.01,0a.026.026,0,0,0,.02-.006v0a.779.779,0,0,1,.095-.01h7.4a.5.5,0,0,1,.344.145.49.49,0,0,1,.139.344v5.916a5.276,5.276,0,0,1,1.006-.094,5.434,5.434,0,0,1,5.434,5.424v.01a5.434,5.434,0,0,1-5.434,5.439,5.278,5.278,0,0,1-1.006-.1v1.105a.507.507,0,0,1-.139.348.5.5,0,0,1-.344.141Zm.482-.967h11.719v-.9a5.435,5.435,0,0,1,0-10.131v-5.713h-6.425v4.777a.492.492,0,0,1-.487.488h-4.807Zm10.534-9.125a4.469,4.469,0,1,0,3.16-1.309A4.419,4.419,0,0,0,8675.5,19817.588Zm-9.843-3.324h3.633v-3.613Zm12.913,9.24a.487.487,0,0,1,0-.687l1.593-1.586h-4.2a.483.483,0,0,1-.344-.826.476.476,0,0,1,.344-.145h4.2l-1.593-1.588a.468.468,0,0,1-.145-.344.473.473,0,0,1,.14-.338.482.482,0,0,1,.344-.145.492.492,0,0,1,.343.139l2.429,2.414a.487.487,0,0,1,.144.344.461.461,0,0,1-.144.344l-2.429,2.418a.484.484,0,0,1-.343.139A.493.493,0,0,1,8678.574,19823.5Z" transform="translate(-8662 -19806)"/>
</svg>
