<svg id="Component_208_1" data-name="Component 208 – 1" xmlns="http://www.w3.org/2000/svg" width="24" height="24" viewBox="0 0 24 24">
  <g id="Rectangle_11669" data-name="Rectangle 11669" fill="#fff" stroke="#707070" stroke-width="1" opacity="0">
    <rect width="24" height="24" stroke="none"/>
    <rect x="0.5" y="0.5" width="23" height="23" fill="none"/>
  </g>
  <path id="Path_23351" data-name="Path 23351" d="M190.8,110.8a10,10,0,1,0-10,10A10,10,0,0,0,190.8,110.8Zm-14.628.537,3.691,3.644a.624.624,0,1,0,.884-.882l-2.464-2.456c-.121-.121-.079-.219.093-.219h6.8a.624.624,0,1,0,0-1.248h-6.8c-.172,0-.215-.1-.093-.219l2.464-2.456a.624.624,0,1,0-.884-.882l-3.686,3.62a.767.767,0,0,0,0,1.1Zm13.378-.537a8.75,8.75,0,1,1-8.75-8.75A8.75,8.75,0,0,1,189.55,110.8Z" transform="translate(-168.801 -98.8)" fill="#dd1726" fill-rule="evenodd"/>
</svg>
