<svg xmlns="http://www.w3.org/2000/svg" width="19.618" height="17.529" viewBox="0 0 19.618 17.529">
  <g id="Group_73169" data-name="Group 73169" transform="translate(-35.17 -719.235)">
    <g id="Group_73168" data-name="Group 73168">
      <path id="Subtraction_64" data-name="Subtraction 64" d="M11.748,17.528H2.209A2.209,2.209,0,0,1,0,15.322V13.335A4.6,4.6,0,0,1,4.6,8.742h4.77a4.6,4.6,0,0,1,4.588,4.593v1.987A2.208,2.208,0,0,1,11.748,17.528ZM4.6,9.578A3.759,3.759,0,0,0,.84,13.335v1.987a1.37,1.37,0,0,0,1.369,1.369h9.539a1.372,1.372,0,0,0,1.373-1.369V13.335A3.759,3.759,0,0,0,9.365,9.578Zm2.381-1.99a3.794,3.794,0,1,1,3.8-3.8A3.8,3.8,0,0,1,6.977,7.588Zm0-6.756A2.961,2.961,0,1,0,9.941,3.791,2.963,2.963,0,0,0,6.977.832Z" transform="translate(35.17 719.236)"/>
      <g id="Ellipse_254" data-name="Ellipse 254" transform="translate(47.772 721.014)" fill="none" stroke="#000" stroke-width="0.8">
        <ellipse cx="2.818" cy="2.835" rx="2.818" ry="2.835" stroke="none"/>
        <ellipse cx="2.818" cy="2.835" rx="2.418" ry="2.435" fill="none"/>
      </g>
      <path id="Path_83193" data-name="Path 83193" d="M-5773.1,10638.145l1.786.242a2.455,2.455,0,0,1,2.01,2.371c.013,2.017-.063,2.8-.063,2.8s-.072.766-1.27.75-2.463,0-2.463,0" transform="translate(5823.692 -9909.535)" fill="none" stroke="#000" stroke-width="0.8"/>
    </g>
  </g>
</svg>
