<svg id="Component_229_1" data-name="Component 229 – 1" xmlns="http://www.w3.org/2000/svg" width="24" height="24" viewBox="0 0 24 24">
  <g id="Rectangle_11580" data-name="Rectangle 11580" fill="#fff" stroke="#707070" stroke-width="1" opacity="0">
    <rect width="24" height="24" stroke="none"/>
    <rect x="0.5" y="0.5" width="23" height="23" fill="none"/>
  </g>
  <path id="Subtraction_48" data-name="Subtraction 48" d="M16.024,20h0L1.431,19.985v-4.54H.2V8.654H17.254v6.791H16.023V20ZM2.3,15.446v3.668l12.847.013v-3.68ZM11.238,9.82v4.46h1.093v-1.8H14.2v-.95H12.331v-.769h2.142V9.82Zm-4.36,0v4.46H8.762a1.787,1.787,0,0,0,1.307-.533A2.42,2.42,0,0,0,10.7,12,2.085,2.085,0,0,0,8.627,9.82Zm-3.9,0v4.46H4.073V12.734h.888A1.4,1.4,0,0,0,6.428,11.3,1.441,1.441,0,0,0,4.962,9.82Zm5.6,3.534H7.944v-2.6h.561c.728,0,1.084.408,1.087,1.247a1.533,1.533,0,0,1-.362,1.1A.878.878,0,0,1,8.582,13.354ZM4.82,11.811H4.073V10.758H4.82a.7.7,0,0,1,.507.179.44.44,0,0,1,.118.334C5.432,11.629,5.221,11.811,4.82,11.811ZM2.3,7.605H1.431V5.171L5.747.2H16.023V7.6H15.15V1.073H6.382v4.7H2.3V7.6Z" transform="translate(2.8 1.8)"/>
</svg>
