<svg id="Component_214_2" data-name="Component 214 – 2" xmlns="http://www.w3.org/2000/svg" width="20" height="20" viewBox="0 0 20 20">
  <g id="Ellipse_43" data-name="Ellipse 43" fill="#fdb933" stroke="#fff" stroke-width="2">
    <circle cx="10" cy="10" r="10" stroke="none"/>
    <circle cx="10" cy="10" r="9" fill="none"/>
  </g>
  <path id="Union_124" data-name="Union 124" d="M17609.256-13218.874l-3.49-1.2a.5.5,0,0,1-.268.076.5.5,0,0,1-.5-.5v-6a.5.5,0,0,1,.5-.5.5.5,0,0,1,.5.5v5.442l3.58,1.235a.5.5,0,0,1,.314.637.5.5,0,0,1-.475.336A.512.512,0,0,1,17609.256-13218.874Z" transform="translate(-17596 13232)" fill="#fff"/>
</svg>
