<svg id="Component_166_3" data-name="Component 166 – 3" xmlns="http://www.w3.org/2000/svg" width="24" height="24" viewBox="0 0 24 24">
  <g id="Rectangle_11593" data-name="Rectangle 11593" fill="#fff" stroke="#707070" stroke-width="1" opacity="0">
    <rect width="24" height="24" stroke="none"/>
    <rect x="0.5" y="0.5" width="23" height="23" fill="none"/>
  </g>
  <path id="Subtraction_45" data-name="Subtraction 45" d="M17840.332-13531.2h-10.666a2.47,2.47,0,0,1-2.469-2.467v-2.222a5.142,5.142,0,0,1,5.137-5.136h5.334a5.14,5.14,0,0,1,5.131,5.136v2.222A2.47,2.47,0,0,1,17840.332-13531.2Zm-8-8.889a4.2,4.2,0,0,0-4.2,4.2v2.222a1.532,1.532,0,0,0,1.531,1.531h10.666a1.534,1.534,0,0,0,1.535-1.531v-2.222a4.2,4.2,0,0,0-4.2-4.2Zm2.664-2.226a4.248,4.248,0,0,1-4.24-4.245,4.245,4.245,0,0,1,4.24-4.24,4.249,4.249,0,0,1,4.246,4.24A4.251,4.251,0,0,1,17835-13542.312Zm0-7.555a3.313,3.313,0,0,0-3.309,3.31,3.315,3.315,0,0,0,3.309,3.313,3.317,3.317,0,0,0,3.314-3.313A3.315,3.315,0,0,0,17835-13549.867Z" transform="translate(-17823.1 13552.9)"/>
</svg>
