<svg id="Qr_code" data-name="Qr code" xmlns="http://www.w3.org/2000/svg" width="24" height="24" viewBox="0 0 24 24">
  <rect id="Rectangle_11271" data-name="Rectangle 11271" width="24" height="24" fill="#fff" opacity="0"/>
  <path id="Path_22973" data-name="Path 22973" d="M2265,481.278V483h-1.645v-1.721Z" transform="translate(-2249.731 -473.214)" fill="#fff"/>
  <path id="Union_61" data-name="Union 61" d="M11.348,19.4v-.96h4.735a2.356,2.356,0,0,0,2.356-2.357V11.348h.96v4.735A3.321,3.321,0,0,1,16.083,19.4Zm-3.3,0H3.317A3.321,3.321,0,0,1,0,16.082V11.348H.96v4.735A2.356,2.356,0,0,0,3.317,18.44H8.052v.96h0Zm3.308-4.321a.4.4,0,0,1-.4-.4V11.359a.4.4,0,0,1,.4-.4h3.319a.4.4,0,0,1,.4.4v3.319a.4.4,0,0,1-.4.4Zm.4-.8h2.519V11.759H11.76Zm-4.12.8v-.8H8.746V13.171h.8v1.507a.4.4,0,0,1-.4.4Zm-3.319,0v-.8H5.427V12.465a.4.4,0,0,1,.4-.4H7.335v.8H6.228v1.813a.4.4,0,0,1-.4.4Zm9.1-1.659h-.8v-.8h.8v.8h0Zm-3.873-1.66h-.8V10.653H6.534v-.8H9.147a.4.4,0,0,1,.4.4v1.506h0Zm-4.425-.553h-.8V9.853h.8v1.353h0Zm5.132-1.66a.4.4,0,0,1-.4-.4V4.72a.4.4,0,0,1,.118-.283.407.407,0,0,1,.283-.118h4.426a.408.408,0,0,1,.283.118.4.4,0,0,1,.117.283V9.147a.4.4,0,0,1-.4.4Zm.4-.8h3.625V5.121H10.654ZM4.721,8.44a.4.4,0,0,1-.4-.4V4.72a.4.4,0,0,1,.4-.4H8.041a.408.408,0,0,1,.283.118.4.4,0,0,1,.117.283V8.04a.4.4,0,0,1-.4.4Zm.4-.8H7.64V5.121H5.122ZM19.4,8.052h-.96V3.317A2.357,2.357,0,0,0,16.083.96H11.348V0h4.735A3.321,3.321,0,0,1,19.4,3.317V8.052h0Zm-18.44,0H0V3.317A3.321,3.321,0,0,1,3.317,0H8.052V.96H3.317A2.357,2.357,0,0,0,.96,3.317V8.052h0Zm11.906-.718h-.8v-.8h.8v.8h0ZM6.781,6.781h-.8v-.8h.8v.8h0Z" transform="translate(2 2)" fill="#fff"/>
</svg>
