<svg id="Component_216_3" data-name="Component 216 – 3" xmlns="http://www.w3.org/2000/svg" width="16" height="16" viewBox="0 0 16 16">
  <circle id="Ellipse_44" data-name="Ellipse 44" cx="8" cy="8" r="8" fill="#e4e7eb"/>
  <path id="Path_23352" data-name="Path 23352" d="M1.31-5.445v-.348A1.543,1.543,0,0,1,1.5-6.578a2.526,2.526,0,0,1,.705-.71,2.951,2.951,0,0,0,.651-.574.831.831,0,0,0,.158-.494.535.535,0,0,0-.226-.465,1.076,1.076,0,0,0-.63-.16A3.618,3.618,0,0,0,.554-8.52L.041-9.55a4.48,4.48,0,0,1,2.224-.588,2.366,2.366,0,0,1,1.54.465,1.52,1.52,0,0,1,.571,1.241,1.651,1.651,0,0,1-.235.893,3.35,3.35,0,0,1-.893.846,2.758,2.758,0,0,0-.571.508.788.788,0,0,0-.12.456v.282ZM1.16-3.837a.788.788,0,0,1,.212-.6.858.858,0,0,1,.616-.2.834.834,0,0,1,.6.207.786.786,0,0,1,.214.592.786.786,0,0,1-.216.585.819.819,0,0,1-.6.214.843.843,0,0,1-.611-.209A.783.783,0,0,1,1.16-3.837Z" transform="translate(5.943 14.749)" fill="#121212"/>
</svg>
