<svg class="iu" version="1.1" id="L3" xmlns="http://www.w3.org/2000/svg" xmlns:xlink="http://www.w3.org/1999/xlink" x="0px" y="0px" viewBox="0 0 100 100" enable-background="new 0 0 0 0" xml:space="preserve">
  <circle fill="none" stroke="#F2C6CA" stroke-width="4" cx="50" cy="50" r="44" style="opacity:1"/>
  <circle fill="#F2C6CA" stroke="#F2C6CA" stroke-width="3" cx="6" cy="50" r="6" style="transform-origin: center;">
    <animateTransform attributeName="transform" dur="2s" type="rotate" from="0" to="360" repeatCount="indefinite"/>
  </circle>
  <g transform="translate(-1096.134 -842.5)" style="
    transform: translate(-1069.13px, -818.5px);
">
    <path d="M287.773,285.983q-5.992,4.047-5.991,11.82A15.362,15.362,0,0,0,283,304a14.037,14.037,0,0,0,3.117,4.615,19.836,19.836,0,0,0,4.776,3.28,35.133,35.133,0,0,0,5.506,2.266q2.083.641,4.7,1.283l.224-3.692,12.806,8.469-13.736,6.856.27-4.463a31.354,31.354,0,0,1-5.523-.763,29.571,29.571,0,0,1-5.263-1.618q-1.781-.809-4.453-2.347l-5.02,11.98q.162.081,2.065,1.254a41.033,41.033,0,0,0,4.047,2.187,31.621,31.621,0,0,0,6.518,1.943,41.4,41.4,0,0,0,4.451.688h9.348a31.719,31.719,0,0,0,6.32-1.376,18.456,18.456,0,0,0,8.3-5.547,14.141,14.141,0,0,0,3.4-9.592,14.624,14.624,0,0,0-.89-5.143,16.815,16.815,0,0,0-2.105-4.047,13.485,13.485,0,0,0-3.36-3.117,34.439,34.439,0,0,0-3.846-2.308,28.821,28.821,0,0,0-4.331-1.659q-2.632-.809-4.048-1.174c-.642-.165-1.43-.35-2.358-.553l-.125,4.289-13.068-8.058,13.515-7.288-.147,5.061a36.212,36.212,0,0,1,6.8,1.084,21.911,21.911,0,0,1,6.761,2.672l5.181-11.9a39.27,39.27,0,0,0-20.32-5.344q-8.744,0-14.734,4.049" 
    transform="translate(816.372 561.066)" fill="#F2C6CA"/>
    <path d="M306.862,336.434h-9.4l-.025,0a42.087,42.087,0,0,1-4.5-.7,32.218,32.218,0,0,1-6.627-1.98,41.729,41.729,0,0,1-4.1-2.214c-1.243-.765-1.925-1.18-2.027-1.233l-.418-.209.182-.431,5.239-12.5.491.283c1.76,1.013,3.244,1.8,4.41,2.325a29.233,29.233,0,0,0,5.169,1.586,31.012,31.012,0,0,0,5.436.75l.5.026-.249,4.1,12.186-6.083-11.361-7.514-.208,3.425-.582-.143c-1.758-.431-3.35-.865-4.732-1.29a35.809,35.809,0,0,1-5.584-2.3,20.417,20.417,0,0,1-4.9-3.365,14.6,14.6,0,0,1-3.23-4.777,15.928,15.928,0,0,1-1.255-6.392c0-5.335,2.09-9.451,6.211-12.234a23.057,23.057,0,0,1,6.826-3.1,30.975,30.975,0,0,1,8.188-1.03,42.625,42.625,0,0,1,10.834,1.353,38.447,38.447,0,0,1,9.741,4.061l.381.225-5.6,12.859-.5-.338a21.55,21.55,0,0,0-6.6-2.6,35.882,35.882,0,0,0-6.7-1.07l-.486-.028.136-4.682-11.991,6.465,11.594,7.149.117-4.026.589.129c.936.205,1.735.393,2.376.558.944.242,2.275.628,4.07,1.18a29.445,29.445,0,0,1,4.407,1.69,35.092,35.092,0,0,1,3.9,2.341,14.045,14.045,0,0,1,3.482,3.235,17.385,17.385,0,0,1,2.17,4.167,15.19,15.19,0,0,1,.921,5.318,14.688,14.688,0,0,1-3.522,9.919,19.03,19.03,0,0,1-8.519,5.694,32.366,32.366,0,0,1-6.42,1.4Zm-9.351-1H306.8A31.35,31.35,0,0,0,313,334.083a18.043,18.043,0,0,0,8.077-5.4,13.716,13.716,0,0,0,3.278-9.264,14.193,14.193,0,0,0-.858-4.968,16.394,16.394,0,0,0-2.04-3.926,13.058,13.058,0,0,0-3.237-3,34.1,34.1,0,0,0-3.789-2.274,28.471,28.471,0,0,0-4.254-1.629c-1.78-.547-3.1-.929-4.025-1.167-.491-.126-1.078-.266-1.752-.418l-.133,4.549-14.543-8.967,15.04-8.11-.158,5.444a37.435,37.435,0,0,1,6.405,1.067,24.4,24.4,0,0,1,6.413,2.421l4.77-10.956a39.019,39.019,0,0,0-19.684-5.053c-5.7,0-10.564,1.333-14.454,3.963-3.83,2.586-5.771,6.424-5.771,11.406a14.937,14.937,0,0,0,1.173,5.993,13.605,13.605,0,0,0,3,4.453,19.424,19.424,0,0,0,4.656,3.2,34.809,34.809,0,0,0,5.426,2.234c1.21.373,2.585.752,4.095,1.131l.24-3.957,14.251,9.425-15.285,7.63.292-4.827a31.772,31.772,0,0,1-5.107-.746,30.15,30.15,0,0,1-5.356-1.65c-1.084-.493-2.429-1.194-4-2.088l-4.632,11.055c.291.176.8.485,1.7,1.039a40.726,40.726,0,0,0,4,2.161,31.313,31.313,0,0,0,6.408,1.906A41.079,41.079,0,0,0,297.511,335.434Z" 
    transform="translate(816.372 561.066)" fill="rgba(0,0,0,0)"/></g>
</svg>
