<svg id="Component_205_2" data-name="Component 205 – 2" xmlns="http://www.w3.org/2000/svg" width="24" height="24" viewBox="0 0 24 24">
  <g id="Rectangle_11666" data-name="Rectangle 11666" fill="#fff" stroke="#707070" stroke-width="1" opacity="0">
    <rect width="24" height="24" stroke="none"/>
    <rect x="0.5" y="0.5" width="23" height="23" fill="none"/>
  </g>
  <path id="Union_121" data-name="Union 121" d="M8.138,19.828a.925.925,0,0,1-.748-.913V16.5a.075.075,0,0,0-.052-.065l-.013,0a.081.081,0,0,0-.07.013L5.542,18.153a.931.931,0,0,1-1.183.117,10.109,10.109,0,0,1-2.627-2.627.936.936,0,0,1,.117-1.183l1.714-1.714a.06.06,0,0,0,.013-.07l-.009-.017c-.009-.017-.03-.048-.061-.048H1.087a.928.928,0,0,1-.913-.748A10.158,10.158,0,0,1,0,10,9.782,9.782,0,0,1,.178,8.14a.925.925,0,0,1,.913-.748H3.51c.031,0,.052-.031.061-.052l0-.013a.079.079,0,0,0-.013-.07L1.848,5.544A.937.937,0,0,1,1.731,4.36,10.11,10.11,0,0,1,4.358,1.733a.931.931,0,0,1,1.183.117L7.255,3.564a.074.074,0,0,0,.078.009c.03-.013.061-.035.061-.065V1.09A.928.928,0,0,1,8.143.176a9.921,9.921,0,0,1,3.723,0,.925.925,0,0,1,.748.913V3.508c0,.03.031.052.056.065a.081.081,0,0,0,.083-.009l1.714-1.714a.931.931,0,0,1,1.183-.117A10.111,10.111,0,0,1,18.277,4.36a.936.936,0,0,1-.117,1.183L16.446,7.257a.06.06,0,0,0-.013.07l.009.017c.009.017.031.048.061.048h2.418a.928.928,0,0,1,.913.748A10.158,10.158,0,0,1,20,10a9.849,9.849,0,0,1-.174,1.862.925.925,0,0,1-.913.748H16.494a.075.075,0,0,0-.061.052l-.009.017a.079.079,0,0,0,.013.07l1.714,1.714a.937.937,0,0,1,.117,1.183,10.111,10.111,0,0,1-2.627,2.627.936.936,0,0,1-1.183-.117l-1.714-1.714a.06.06,0,0,0-.07-.013l-.017.009c-.017.009-.048.03-.048.061v2.418a.928.928,0,0,1-.748.913A10.192,10.192,0,0,1,10,20,9.849,9.849,0,0,1,8.138,19.828Zm-.47-4.2.035.017a.939.939,0,0,1,.561.852v2.418a.058.058,0,0,0,.043.061,9.1,9.1,0,0,0,3.4,0,.06.06,0,0,0,.039-.061V16.5a.944.944,0,0,1,.557-.857l.035-.017a.949.949,0,0,1,1.026.2l1.714,1.714a.067.067,0,0,0,.078.013,9.51,9.51,0,0,0,1.309-1.087,9.238,9.238,0,0,0,1.087-1.309.062.062,0,0,0-.013-.074l-1.714-1.714a.935.935,0,0,1-.2-1.026l.017-.035a.941.941,0,0,1,.857-.561h2.418a.059.059,0,0,0,.061-.039,9.064,9.064,0,0,0,0-3.4.06.06,0,0,0-.061-.039H16.5a.954.954,0,0,1-.861-.557l-.017-.035a.949.949,0,0,1,.2-1.026L17.534,4.93a.067.067,0,0,0,.013-.078,9.512,9.512,0,0,0-1.087-1.309A9.236,9.236,0,0,0,15.15,2.455a.062.062,0,0,0-.074.013L13.362,4.182a.956.956,0,0,1-1.622-.67V1.094a.06.06,0,0,0-.039-.061,9.1,9.1,0,0,0-3.4,0,.06.06,0,0,0-.039.061V3.512a.943.943,0,0,1-.591.866.931.931,0,0,1-1.031-.2L4.928,2.468a.067.067,0,0,0-.078-.013A9.507,9.507,0,0,0,3.541,3.543,9.238,9.238,0,0,0,2.453,4.852a.062.062,0,0,0,.013.074L4.18,6.64a.935.935,0,0,1,.2,1.026L4.363,7.7a.939.939,0,0,1-.852.561H1.092a.06.06,0,0,0-.061.039,9.064,9.064,0,0,0,0,3.4.06.06,0,0,0,.061.039H3.51a.94.94,0,0,1,.857.561l.017.035a.949.949,0,0,1-.2,1.026L2.471,15.078a.067.067,0,0,0-.013.078,9.507,9.507,0,0,0,1.087,1.309,9.235,9.235,0,0,0,1.309,1.087.062.062,0,0,0,.074-.013l1.714-1.714a.927.927,0,0,1,.659-.272A.984.984,0,0,1,7.669,15.626ZM5.655,10A4.35,4.35,0,1,1,10,14.352,4.357,4.357,0,0,1,5.655,10Zm.87,0A3.48,3.48,0,1,0,10,6.522,3.484,3.484,0,0,0,6.525,10Z" transform="translate(2 2)"/>
</svg>
