<svg id="Component_204_2" data-name="Component 204 – 2" xmlns="http://www.w3.org/2000/svg" width="24" height="24" viewBox="0 0 24 24">
  <g id="Rectangle_11665" data-name="Rectangle 11665" fill="#fff" stroke="#707070" stroke-width="1" opacity="0">
    <rect width="24" height="24" stroke="none"/>
    <rect x="0.5" y="0.5" width="23" height="23" fill="none"/>
  </g>
  <path id="Union_123" data-name="Union 123" d="M17860.607-12994.81a1.607,1.607,0,0,1-1.605-1.606v-1.817a.783.783,0,0,1,.785-.785h1.836v-11.77h-1.836a.786.786,0,0,1-.785-.785v-1.821a1.61,1.61,0,0,1,1.605-1.606h13.385a1.61,1.61,0,0,1,1.607,1.606v8.1a4.539,4.539,0,0,1,3.4,4.388,4.535,4.535,0,0,1-.65,2.343.3.3,0,0,1-.408.1.293.293,0,0,1-.1-.4,3.936,3.936,0,0,0,.564-2.037,3.945,3.945,0,0,0-3.939-3.939,3.942,3.942,0,0,0-3.936,3.939,3.942,3.942,0,0,0,3.936,3.94,3.969,3.969,0,0,0,2.535-.92.288.288,0,0,1,.412.035.3.3,0,0,1-.035.418,4.545,4.545,0,0,1-1.781.915v.1a1.607,1.607,0,0,1-1.607,1.6Zm1.283-19.546a1.5,1.5,0,0,1,.154.247,1.644,1.644,0,0,1,.17.714v16.979a1.776,1.776,0,0,1-.359,1.019h12.137a1.022,1.022,0,0,0,1.016-1c-.176.018-.355.031-.539.031a4.536,4.536,0,0,1-4.527-4.532,4.535,4.535,0,0,1,4.527-4.527,4.253,4.253,0,0,1,.539.031v-8a1.02,1.02,0,0,0-1.016-1.015h-12.141C17861.865-13014.391,17861.879-13014.373,17861.891-13014.355Zm-2.3,16.122v1.822a1.019,1.019,0,0,0,1.018,1.014,1.186,1.186,0,0,0,.252-.031.835.835,0,0,0,.189-.072,1.009,1.009,0,0,0,.574-.91v-2.015h-1.836A.2.2,0,0,0,17859.59-12998.233Zm0-15.161v1.821a.2.2,0,0,0,.2.193h1.836v-2.015a1.017,1.017,0,0,0-1.016-1.015A1.019,1.019,0,0,0,17859.59-13013.395Zm13.883,14.358c-.121-.09-1.023-.669-1.477-1.063-.381-.332.176-.884.557-.557a11.007,11.007,0,0,0,1.145.771s1.494-1.992,2.2-3.028c.283-.417.965-.022.674.4-.8,1.185-1.65,2.347-2.535,3.478a.29.29,0,0,1-.238.1A.592.592,0,0,1,17873.473-12999.036Zm-9.307-.938a.3.3,0,0,1-.295-.3.3.3,0,0,1,.295-.3h4.174a.3.3,0,0,1,.295.3.3.3,0,0,1-.295.3Zm0-4.927a.3.3,0,0,1-.295-.3.294.294,0,0,1,.295-.3h5.4a.3.3,0,0,1,.3.3.3.3,0,0,1-.3.3Zm0-4.931a.3.3,0,0,1-.295-.3.3.3,0,0,1,.295-.3h8.885a.3.3,0,0,1,.3.3.3.3,0,0,1-.3.3Z" transform="translate(-17856.5 13016.5)" stroke="#000" stroke-width="0.2"/>
</svg>
