<svg id="Component_230_1" data-name="Component 230 – 1" xmlns="http://www.w3.org/2000/svg" width="24" height="24" viewBox="0 0 24 24">
  <g id="Rectangle_11742" data-name="Rectangle 11742" fill="#fff" stroke="#707070" stroke-width="1" opacity="0">
    <rect width="24" height="24" stroke="none"/>
    <rect x="0.5" y="0.5" width="23" height="23" fill="none"/>
  </g>
  <path id="Subtraction_49" data-name="Subtraction 49" d="M16.024,20h0L1.431,19.985v-4.54H.2V8.654H17.256v6.792H16.024V20ZM2.3,15.446v3.668l12.848.013v-3.68ZM7.009,12.8l.013.111a3.322,3.322,0,0,0,.086.5,1.406,1.406,0,0,0,1.07.922,3.474,3.474,0,0,0,.784.095,2.6,2.6,0,0,0,.627-.074,1.42,1.42,0,0,0,1.092-.932,1.466,1.466,0,0,0-.205-1.251l0-.005a2.031,2.031,0,0,0-.995-.508l-.111-.033c-.129-.04-.261-.07-.389-.1a2.654,2.654,0,0,1-.677-.216.305.305,0,0,1-.163-.265.337.337,0,0,1,.139-.309.957.957,0,0,1,.492-.118,1.929,1.929,0,0,1,.369.039.547.547,0,0,1,.416.517l0,.1H10.6l0-.1a1.474,1.474,0,0,0-.4-.99,1.947,1.947,0,0,0-1.383-.51,3.059,3.059,0,0,0-.493.041,1.4,1.4,0,0,0-1.153.955,1.374,1.374,0,0,0,.2,1.193,2.26,2.26,0,0,0,1.25.6l.081.02c.079.023.163.04.244.056l.019,0a1.268,1.268,0,0,1,.621.24.4.4,0,0,1,.076.328.393.393,0,0,1-.19.281,1.106,1.106,0,0,1-.535.125,1.659,1.659,0,0,1-.371-.044.6.6,0,0,1-.483-.561l0-.1H7.009ZM4.648,9.679H4.605a1.95,1.95,0,0,0-1.439.6,2.71,2.71,0,0,0-.6,2.1,2.157,2.157,0,0,0,1.015,1.8,2.18,2.18,0,0,0,1.032.256,2.134,2.134,0,0,0,.806-.154,1.994,1.994,0,0,0,1.139-1.539l.02-.116H5.489l-.016.079a.834.834,0,0,1-.843.754,1.315,1.315,0,0,1-.356-.053c-.412-.117-.536-.624-.571-.836A2.46,2.46,0,0,1,3.855,11.1a.807.807,0,0,1,.724-.448h.008l.067,0a.864.864,0,0,1,.819.689l.015.081H6.575l-.014-.113A1.729,1.729,0,0,0,5.127,9.73,2.311,2.311,0,0,0,4.648,9.679Zm6.285.142,1.511,4.459h.984l1.512-4.459H13.8l-.852,2.75L12.1,9.822ZM2.3,7.605h-.87V5.17L5.747.2H16.024V7.6h-.873V1.073H6.383v4.7H2.3V7.6Z" transform="translate(2.8 1.8)"/>
</svg>
